<?xml version="1.0" encoding="UTF-8"?>
<svg version="1.1" xmlns="http://www.w3.org/2000/svg" width="740" height="740">
<path d="M0 0 C244.2 0 488.4 0 740 0 C740 244.2 740 488.4 740 740 C495.8 740 251.6 740 0 740 C0 495.8 0 251.6 0 0 Z " fill="#FEFEFE" transform="translate(0,0)"/>
<path d="M0 0 C8.41918159 4.87585696 15.59823713 11.35988892 18.6953125 20.875 C20.74130566 31.10496582 19.38746006 40.24788931 14.171875 49.2578125 C10.99760404 53.64369135 7.56155571 57.0976266 3.171875 60.2578125 C3.85476063 64.82516441 5.55418368 68.85560016 7.359375 73.0703125 C9.70619463 78.57151787 11.88638691 84.11997834 13.96875 89.7265625 C17.2407915 98.52713179 20.72512102 107.23716374 24.234375 115.9453125 C25.43482658 118.92789107 26.63408551 121.91094533 27.83203125 124.89453125 C28.26651581 125.97655067 28.26651581 125.97655067 28.70977783 127.08042908 C30.84123262 132.40157805 32.90728657 137.74594615 34.95385742 143.1003418 C37.17698151 148.8633532 39.49296184 154.5892382 41.796875 160.3203125 C46.17370734 171.23046989 50.50532948 182.15733466 54.79516602 193.10205078 C58.92578295 203.63938423 63.07801623 214.16810991 67.234375 224.6953125 C67.56619781 225.53594238 67.89802063 226.37657227 68.23989868 227.24267578 C69.18712516 229.64231227 70.13453434 232.04187653 71.08203125 234.44140625 C71.36487976 235.15787827 71.64772827 235.87435028 71.93914795 236.61253357 C73.06101456 239.45280984 74.18544452 242.29098025 75.34179688 245.11743164 C76.66432826 248.52761772 76.90373989 251.67094993 76.171875 255.2578125 C73.60530848 258.43225004 71.37499814 260.94937526 67.21875 261.53125 C66.46078125 261.56476563 65.7028125 261.59828125 64.921875 261.6328125 C64.17421875 261.68179687 63.4265625 261.73078125 62.65625 261.78125 C58.82679838 260.97441585 56.5559811 259.25218205 54.171875 256.2578125 C51.99669692 252.09486789 50.33771432 247.77020824 48.671875 243.3828125 C48.1977417 242.17367187 47.7236084 240.96453125 47.23510742 239.71875 C46.29645948 237.3232138 45.3642285 234.92515162 44.43896484 232.52441406 C43.36403129 229.75319809 42.26183528 226.99785737 41.12890625 224.25 C40.70158203 223.21141846 40.70158203 223.21141846 40.265625 222.15185547 C39.87890625 221.2143042 39.87890625 221.2143042 39.484375 220.2578125 C37.171875 214.62964349 37.171875 214.62964349 37.171875 211.2578125 C2.851875 211.2578125 -31.468125 211.2578125 -66.828125 211.2578125 C-67.818125 214.5578125 -68.808125 217.8578125 -69.828125 221.2578125 C-70.84553497 224.09549209 -71.87944269 226.90756656 -72.97265625 229.71484375 C-73.26492599 230.46569748 -73.55719574 231.21655121 -73.85832214 231.99015808 C-74.47182454 233.5581359 -75.08783548 235.12513442 -75.70629883 236.69116211 C-76.33151836 238.28320923 -76.94898812 239.87832063 -77.55883789 241.47631836 C-78.45069601 243.81281947 -79.36518442 246.13929095 -80.28515625 248.46484375 C-80.55101028 249.17324905 -80.81686432 249.88165436 -81.09077454 250.61152649 C-83.1081099 255.60024934 -85.41025744 258.15818854 -89.828125 261.2578125 C-94.5105358 262.5142594 -98.1158604 261.63938282 -102.328125 259.3828125 C-105.71817778 256.50126764 -105.77358338 255.87760359 -106.171875 251.3515625 C-106.08438441 245.23694247 -103.75539537 240.2855151 -101.328125 234.7578125 C-100.31420037 232.36207759 -99.30373983 229.96509662 -98.296875 227.56640625 C-97.88804077 226.59851418 -97.88804077 226.59851418 -97.47094727 225.61106873 C-93.7442859 216.75218883 -90.30392388 207.77973625 -86.828125 198.8203125 C-86.1384997 197.04719059 -85.44864028 195.27415972 -84.75854492 193.5012207 C-83.41180581 190.04109711 -82.06574803 186.5807099 -80.72021484 183.12011719 C-78.03791704 176.22423576 -75.34245477 169.33356137 -72.640625 162.4453125 C-72.21974609 161.36902588 -71.79886719 160.29273926 -71.36523438 159.18383789 C-69.44945353 154.30240036 -67.49693583 149.44148279 -65.46435547 144.60742188 C-63.0002034 138.70518326 -60.64011537 132.76728851 -58.31640625 126.80859375 C-57.90327682 125.75286667 -57.4901474 124.69713959 -57.0644989 123.60942078 C-55.75529727 120.26353609 -54.44778952 116.91699351 -53.140625 113.5703125 C-51.42955552 109.19094775 -49.7172663 104.81206284 -48.00390625 100.43359375 C-47.58319855 99.3573172 -47.16249084 98.28104065 -46.72903442 97.17214966 C-44.49727802 91.4741941 -42.24242031 85.78653252 -39.95458984 80.11083984 C-39.49030075 78.95819138 -39.02601166 77.80554291 -38.5476532 76.6179657 C-37.65466358 74.40543521 -36.75863104 72.19412984 -35.85920715 69.98420715 C-35.46118393 68.99837143 -35.06316071 68.01253571 -34.65307617 66.99682617 C-34.12311287 65.69270027 -34.12311287 65.69270027 -33.58244324 64.36222839 C-32.71565045 62.31661533 -32.71565045 62.31661533 -32.828125 60.2578125 C-34.45198881 58.69348007 -34.45198881 58.69348007 -36.515625 57.0703125 C-43.89874145 50.74379046 -48.1284454 43.9815628 -49.1484375 34.1796875 C-49.51415333 23.89088213 -47.4133304 15.95273104 -40.828125 7.9453125 C-29.87852196 -3.21794133 -14.4487119 -6.93344229 0 0 Z " fill="#5C6F80" transform="translate(384.828125,282.7421875)"/>
<path d="M0 0 C1.49756836 0.4014624 1.49756836 0.4014624 3.02539062 0.81103516 C40.77787696 11.21185733 71.28305674 35.52542248 90.9375 69.375 C97.11654744 80.34547194 100.97872484 91.65337666 104.05322266 103.80688477 C104.51153599 105.6173812 104.99337652 107.42197725 105.48974609 109.22241211 C107.72768596 117.86139126 108.16648339 126.10764084 108.0625 135 C108.05601944 136.05273605 108.05601944 136.05273605 108.04940796 137.1267395 C107.79451309 172.49579036 95.91069397 205.96591449 71.69921875 232.109375 C69.55667561 234.39655651 69.55667561 234.39655651 67.3125 237.375 C61.23970698 244.17074457 53.62501661 249.44996186 46.25 254.75 C45.65904541 255.17506836 45.06809082 255.60013672 44.45922852 256.03808594 C37.01343583 261.3125 37.01343583 261.3125 31.6875 261.3125 C30.67891578 258.89910204 29.68047327 256.48231325 28.6875 254.0625 C28.25824219 253.03962891 28.25824219 253.03962891 27.8203125 251.99609375 C26.39404506 248.49834265 25.6875 246.14349811 25.6875 242.3125 C28.072518 240.44504301 30.38216346 238.85014041 32.9375 237.25 C43.49381632 230.32457831 52.83994108 222.27889983 60.6875 212.3125 C61.491875 211.29929687 61.491875 211.29929687 62.3125 210.265625 C78.39008951 188.67997242 86.10015437 163.44606311 86.0625 136.6875 C86.06195618 136.03086365 86.06141235 135.37422729 86.06085205 134.69769287 C86.01927278 123.73972636 85.0726016 113.73315142 81.6875 103.3125 C81.47319336 102.63622559 81.25888672 101.95995117 81.03808594 101.26318359 C75.65918785 84.71543816 67.42033558 68.84171978 54.88671875 56.5703125 C52.6875 54.3125 52.6875 54.3125 52.6875 52.3125 C52.11515625 52.065 51.5428125 51.8175 50.953125 51.5625 C48.33715463 50.119206 46.57231013 48.4025239 44.4375 46.3125 C19.50653121 23.7006911 -12.40977119 16.86665075 -45.14404297 18.12792969 C-51.41914075 18.49346936 -57.27456041 19.51489014 -63.3125 21.3125 C-65.12427734 21.82296875 -65.12427734 21.82296875 -66.97265625 22.34375 C-86.79812834 28.41235366 -103.45047332 38.99288306 -118.3125 53.3125 C-119.28123047 54.18648437 -119.28123047 54.18648437 -120.26953125 55.078125 C-135.3692353 69.08159761 -145.06564015 89.7105664 -150.3125 109.3125 C-150.60616455 110.38310669 -150.60616455 110.38310669 -150.90576172 111.4753418 C-152.67781003 118.91276513 -152.61613534 126.39115169 -152.57324219 133.98901367 C-152.56253659 136.24229949 -152.57318088 138.49478542 -152.5859375 140.74804688 C-152.59984217 152.63007954 -150.99674695 163.23410392 -147.1875 174.5 C-146.88183105 175.40419678 -146.57616211 176.30839355 -146.26123047 177.23999023 C-137.18688772 203.28450258 -119.94977092 224.93110714 -96.6484375 239.81640625 C-94.3125 241.3125 -94.3125 241.3125 -93.3125 242.3125 C-93.65508996 248.59331593 -94.98340917 254.8908378 -98.3125 260.3125 C-100.06640625 261.3125 -100.06640625 261.3125 -102.3125 261.3125 C-110.70269623 257.32204082 -118.31624958 251.35717386 -125.3125 245.3125 C-126.28058594 244.47847656 -127.24867188 243.64445313 -128.24609375 242.78515625 C-145.10297783 227.96826006 -157.97102256 209.42870546 -165.59521484 188.29736328 C-166.28257751 186.39530117 -167.0095888 184.50770845 -167.73828125 182.62109375 C-177.53858906 155.82202194 -177.55000131 123.47546912 -169.3125 96.3125 C-168.97557129 95.20116699 -168.97557129 95.20116699 -168.63183594 94.06738281 C-161.77964603 72.39371663 -149.01913206 53.56927679 -133.3125 37.3125 C-132.81049072 36.78205078 -132.30848145 36.25160156 -131.79125977 35.70507812 C-127.48872626 31.25599973 -122.90949009 27.52735815 -117.875 23.9375 C-117.09294189 23.37804687 -116.31088379 22.81859375 -115.50512695 22.2421875 C-99.9189771 11.26943733 -83.84549212 3.99073102 -65.3125 -0.6875 C-64.14847656 -0.98914063 -62.98445313 -1.29078125 -61.78515625 -1.6015625 C-42.09113777 -6.02393391 -19.43697106 -5.28004317 0 0 Z " fill="#5B6E80" transform="translate(403.3125,176.6875)"/>
<path d="M0 0 C1.02891357 0.41064697 1.02891357 0.41064697 2.07861328 0.82958984 C11.93962514 4.85560597 20.18963811 9.643143 28 17 C29.19882812 18.09828125 29.19882812 18.09828125 30.421875 19.21875 C46.02897551 34.09263102 55.69675218 54.95776228 56.34375 76.5715332 C56.6528789 101.21248739 48.5522847 121.87369267 32.0859375 140.12109375 C30.43723751 141.80974022 28.75049268 143.41782392 27 145 C26.46375 145.5053125 25.9275 146.010625 25.375 146.53125 C22.26177278 149.3331545 21.35455216 150 17 150 C15.98319357 147.98757061 14.98726211 145.9645868 14 143.9375 C13.443125 142.81214844 12.88625 141.68679688 12.3125 140.52734375 C10.894804 136.71728575 10.61843096 134.03093453 11 130 C12.875 127.5625 12.875 127.5625 15 126 C15.66 126 16.32 126 17 126 C17.26039063 125.43925781 17.52078125 124.87851562 17.7890625 124.30078125 C19.58871868 120.8814345 21.89034691 117.8589687 24.1484375 114.73046875 C33.40257801 101.08354002 36.65929506 84.01897781 33.57226562 67.74511719 C29.40062579 50.35294591 19.95813417 36.35931391 4.88671875 26.63671875 C-10.66024035 17.45633888 -27.73236796 14.32646262 -45.3125 18.625 C-62.27292067 23.12783907 -75.47843159 33.86297251 -84.25 48.875 C-87.37186446 54.3849951 -89.60038535 59.82318823 -91 66 C-91.17128418 66.61649414 -91.34256836 67.23298828 -91.51904297 67.86816406 C-95.29890183 84.62234049 -90.32624396 101.55594417 -82 116 C-78.4145453 121.40542267 -74.33789932 126.27308831 -69 130 C-70.42857143 145.42857143 -70.42857143 145.42857143 -75 150 C-79.78562392 149.85948945 -82.51663154 147.21629599 -85.8125 144.0625 C-86.33730957 143.56886963 -86.86211914 143.07523926 -87.40283203 142.56665039 C-100.84936495 129.67438002 -113.52740549 110.5743465 -114.0078125 91.3046875 C-114.00523437 90.21414063 -114.00265625 89.12359375 -114 88 C-114.05685437 86.46082214 -114.11703767 84.92176535 -114.1796875 83.3828125 C-114.52921069 72.27312129 -113.47008403 62.55913358 -110 52 C-109.66097656 50.95585937 -109.32195312 49.91171875 -108.97265625 48.8359375 C-101.17232099 27.79446374 -82.73788097 10.80345772 -62.71875 1.578125 C-43.98852739 -6.57480071 -19.04446155 -7.67398848 0 0 Z " fill="#5CC1AD" transform="translate(399,234)"/>
<path d="M0 0 C19.14 0 38.28 0 58 0 C60.31 5.713125 62.62 11.42625 65 17.3125 C65.73089844 19.11243408 66.46179688 20.91236816 67.21484375 22.7668457 C67.78947361 24.19465883 68.36371873 25.62262689 68.9375 27.05078125 C69.23978516 27.79114624 69.54207031 28.53151123 69.85351562 29.29431152 C71.07254254 32.34032393 72 34.68706803 72 38 C43.62 38 15.24 38 -14 38 C-12.62128133 32.48512534 -11.27889967 27.8372843 -9.1796875 22.65625 C-8.45628174 20.85897461 -8.45628174 20.85897461 -7.71826172 19.02539062 C-7.10998535 17.53201172 -6.50170898 16.03863281 -5.875 14.5 C-3.93625 9.715 -1.9975 4.93 0 0 Z " fill="#FCFDFD" transform="translate(341,436)"/>
<path d="M0 0 C0.66 0 1.32 0 2 0 C2.20853607 0.52760422 2.41707214 1.05520844 2.63192749 1.59880066 C4.80560273 7.09822342 6.97942045 12.59758985 9.15332031 18.09692383 C9.96422916 20.14834171 10.77510188 22.19977388 11.5859375 24.2512207 C12.75250871 27.20267446 13.91921054 30.15407656 15.0859375 33.10546875 C15.44746918 34.02023483 15.80900085 34.93500092 16.18148804 35.87748718 C16.69179062 37.1682592 16.69179062 37.1682592 17.21240234 38.48510742 C17.52554382 39.28056976 17.8386853 40.0760321 18.16131592 40.89559937 C18.83379157 42.58295484 19.53463873 44.25899135 20.24462891 45.9309082 C21 48 21 48 21 51 C7.8 51 -5.4 51 -19 51 C-18.1980182 46.18810922 -17.28645202 42.80257667 -15.48828125 38.37890625 C-15.2375737 37.75708969 -14.98686615 37.13527313 -14.7285614 36.49461365 C-13.92889673 34.51488112 -13.12094112 32.53866249 -12.3125 30.5625 C-11.78914699 29.27171394 -11.26635636 27.98069971 -10.74414062 26.68945312 C-9.70013311 24.10973166 -8.65309554 21.53127103 -7.60400391 18.95361328 C-5.04079087 12.64722024 -2.52206007 6.32293502 0 0 Z " fill="#F9FAFB" transform="translate(369,365)"/>
<path d="M0 0 C4.3966905 2.50611359 6.94280288 5.79462501 8.75 10.5 C9.85805887 16.118741 8.80278142 20.81518231 6.02734375 25.7734375 C3.35171781 29.39003281 -0.07694074 31.10898025 -4.25 32.5 C-10.18118152 33.3189008 -14.6056402 32.60698393 -19.51953125 29.10546875 C-23.89332218 25.04761757 -25.46023846 20.36977739 -25.875 14.5 C-25.63135196 8.85258649 -23.26173014 5.34572752 -19.25 1.5 C-13.35488529 -2.69208157 -6.56111293 -2.78537813 0 0 Z " fill="#95D4C7" transform="translate(378.25,297.5)"/>
<path d="M0 0 C8.58 0 17.16 0 26 0 C25.01 1.485 25.01 1.485 24 3 C21.66162109 3.34057617 21.66162109 3.34057617 18.7734375 3.29296875 C17.7421875 3.28330078 16.7109375 3.27363281 15.6484375 3.26367188 C14.56820313 3.23853516 13.48796875 3.21339844 12.375 3.1875 C11.28703125 3.17396484 10.1990625 3.16042969 9.078125 3.14648438 C6.38492591 3.11104754 3.69270626 3.06164331 1 3 C0.67 2.01 0.34 1.02 0 0 Z " fill="#6D7E8C" transform="translate(354,173)"/>
<path d="M0 0 C0.99 0 1.98 0 3 0 C3.70731186 4.66825827 1.92277529 7.03280231 -0.7109375 10.64453125 C-1.13632812 11.09183594 -1.56171875 11.53914063 -2 12 C-2.66 12 -3.32 12 -4 12 C-2.66666667 8 -1.33333333 4 0 0 Z " fill="#6D757F" transform="translate(299,479)"/>
<path d="M0 0 C0 3 0 3 -1.6875 5.125 C-4.20933322 7.16972964 -5.81390075 7.64598897 -9 8 C-6.14723863 5.06799526 -3.34920216 2.35684596 0 0 Z " fill="#627584" transform="translate(446,407)"/>
<path d="M0 0 C0.95904856 3.83619425 0.91892116 5.32431536 0 9 C-0.99 9.33 -1.98 9.66 -3 10 C-2.01 6.7 -1.02 3.4 0 0 Z " fill="#6B7C8C" transform="translate(334,390)"/>
<path d="M0 0 C0.33 0.99 0.66 1.98 1 3 C0.34 3.66 -0.32 4.32 -1 5 C-1.70710678 6.64991582 -2.37943989 8.31562256 -3 10 C-3.99 9.34 -4.98 8.68 -6 8 C-4.02 5.36 -2.04 2.72 0 0 Z " fill="#677784" transform="translate(468,383)"/>
</svg>
